<svg width="17" height="21" viewBox="0 0 17 21" fill="none" xmlns="http://www.w3.org/2000/svg">
<path d="M8.5 0C6.24648 0.00258035 4.08602 0.872603 2.49253 2.41922C0.899053 3.96584 0.00266759 6.06276 9.04313e-06 8.25C-0.00269001 10.0374 0.598857 11.7763 1.71237 13.2C1.71237 13.2 1.94419 13.4963 1.98205 13.539L8.5 21L15.021 13.5353C15.055 13.4955 15.2876 13.2 15.2876 13.2L15.2884 13.1978C16.4014 11.7747 17.0026 10.0366 17 8.25C16.9973 6.06276 16.1009 3.96584 14.5075 2.41922C12.914 0.872603 10.7535 0.00258035 8.5 0ZM8.5 11.25C7.88868 11.25 7.29108 11.0741 6.78278 10.7444C6.27449 10.4148 5.87832 9.94623 5.64438 9.39805C5.41043 8.84987 5.34922 8.24667 5.46849 7.66473C5.58775 7.08279 5.88213 6.54824 6.3144 6.12868C6.74667 5.70912 7.29742 5.4234 7.89699 5.30764C8.49657 5.19189 9.11805 5.2513 9.68284 5.47836C10.2476 5.70542 10.7304 6.08994 11.07 6.58329C11.4096 7.07664 11.5909 7.65666 11.5909 8.25C11.5899 9.04535 11.2639 9.80783 10.6845 10.3702C10.105 10.9326 9.31945 11.249 8.5 11.25Z" fill="#868B9D"/>
</svg>
