<svg width="120" height="67" viewBox="0 0 120 67" fill="none" xmlns="http://www.w3.org/2000/svg">
<path d="M114.382 22.2867V3.5953H109.743H108.136H107.483V9.88838L101.978 0H83.2974L98.6283 27.5414H117.309L114.382 22.2867Z" fill="#AA5140"/>
<path d="M40.6016 0H21.9259L37.2516 27.5414H55.9378L40.6016 0Z" fill="#257BB0"/>
<path d="M0 45.6585H18.6116L40.4403 0H21.8391L0 45.6585Z" fill="#00B0D5"/>
<path d="M71.3168 0H52.6411L67.9668 27.5414H86.6478L71.3168 0Z" fill="#597E5C"/>
<path d="M71.2642 0H52.5885L37.2576 27.5414H55.9385L71.2642 0Z" fill="#90B751"/>
<path d="M46.598 10.7541L37.2576 27.5409H55.9385L46.598 10.7541Z" fill="#005F3A"/>
<path d="M101.977 0H83.3017L67.9656 27.5414H86.6517L101.977 0Z" fill="#C96145"/>
<path d="M77.3157 10.7541L67.97 27.5409H86.6561L77.3157 10.7541Z" fill="#47351C"/>
<path d="M41.3608 46.5062C37.1146 46.5062 35.4513 44.8625 35.4513 40.9097C35.4513 37.5245 37.5646 35.3524 40.9694 35.3524C42.4957 35.3524 43.4546 35.646 44.1981 36.0373L43.4937 37.9745C42.7306 37.681 42.1827 37.5049 41.0477 37.5049C39.4431 37.5049 38.1125 38.4637 38.1125 40.9097C38.1125 43.2775 38.7778 44.3928 41.5369 44.3928C42.4175 44.3928 43.0241 44.2363 43.7285 44.1189L44.1003 46.1344C43.2393 46.33 42.5349 46.5062 41.3608 46.5062Z" fill="white"/>
<path d="M46.7119 46.3105V35.6264H49.3144V40.4597L52.954 35.6264H55.8696L51.7408 40.6358L53.5411 42.6904C54.4021 43.6492 55.1261 44.2558 56.2219 44.5494L55.8696 46.5257C54.539 46.4475 53.228 46.2126 51.8387 44.4711L49.3144 41.3207V46.3105H46.7119Z" fill="white"/>
<path d="M61.1158 46.4866C58.9438 46.4866 57.6914 45.3908 57.6914 43.3362C57.6914 40.6554 60.1179 40.1074 62.0942 40.0879L64.2076 40.0683V39.1291C64.2076 37.8963 63.5031 37.6028 61.9573 37.6028C60.9397 37.6028 59.7656 37.8767 58.9829 38.0724L58.4546 36.1352C59.3939 35.7829 60.7832 35.372 62.4269 35.372C65.3816 35.372 66.7514 36.2526 66.7514 38.542V43.7471C66.7514 44.2558 67.1819 44.3733 67.7298 44.4124L67.6124 46.4083H67.0449C65.91 46.4083 64.6772 46.1344 64.4424 45.1951C63.7575 45.7039 62.6617 46.4866 61.1158 46.4866ZM61.7029 44.432C62.603 44.432 63.6597 43.9428 64.2076 43.7666V41.6533L62.2312 41.7316C60.9984 41.7512 60.2157 42.2599 60.2157 43.1405C60.2157 44.0797 60.881 44.432 61.7029 44.432Z" fill="white"/>
<path d="M72.9049 46.3105V37.6223H69.4414V35.6264H78.9514V37.6223H75.4879V46.3105H72.9049Z" fill="white"/>
<path d="M81.1552 46.3105V35.6264H83.7577V39.9509H88.2388V35.6264H90.8413V46.3105H88.2388V41.9468H83.7577V46.3105H81.1552Z" fill="white"/>
<path d="M94.2925 46.3105V35.6264H96.895V44.3145H98.5583C99.7519 44.3145 100.378 43.7471 100.378 42.6513C100.378 41.3989 99.5171 40.9489 98.206 40.9489H97.0907V38.9725H98.3626C101.278 38.9725 103.039 40.264 103.039 42.6904C103.039 44.7255 101.552 46.3105 99.2627 46.3105H94.2925ZM104.253 46.3105V35.6264H106.875V46.3105H104.253Z" fill="white"/>
<path d="M115.168 46.5453C111.802 46.5453 109.669 45.3321 109.669 41.1445C109.669 36.7809 111.881 35.372 114.894 35.372C117.986 35.372 119.238 37.4071 119.238 40.7532V41.6924H112.272C112.272 44.0406 113.74 44.432 115.638 44.432C116.381 44.432 117.653 44.1776 118.534 44.0015L118.945 46.017C118.064 46.2909 116.636 46.5453 115.168 46.5453ZM112.331 39.9509H116.557C116.577 38.3463 115.931 37.231 114.64 37.231C113.329 37.231 112.448 38.1898 112.331 39.9509Z" fill="white"/>
<path d="M36.097 62.6171V51.933H38.6996V56.7663L42.3392 51.933H45.2548L41.126 56.9424L42.9262 58.997C43.7872 59.9558 44.5112 60.5624 45.607 60.856L45.2548 62.8323C43.9242 62.754 42.6131 62.5192 41.2238 60.7777L38.6996 57.6272V62.6171H36.097Z" fill="white"/>
<path d="M47.8202 66.922V51.933H50.4032V52.7353C50.9511 52.3243 52.1056 51.6786 53.1427 51.6786C56.0192 51.6786 57.7216 53.244 57.7216 56.8445C57.7216 61.306 55.0016 62.8127 52.0469 62.8127C51.4011 62.8127 50.8532 62.754 50.4032 62.7149V66.922H47.8202ZM52.1251 60.7972C54.0428 60.7972 55.0799 59.1927 55.0799 57.0598C55.0799 55.0247 54.395 53.8702 52.3991 53.8702C51.6751 53.8702 50.7945 54.2811 50.4032 54.4377V60.6407C50.7945 60.6798 51.3229 60.7972 52.1251 60.7972Z" fill="white"/>
<path d="M65.019 62.8519C61.712 62.8519 59.8531 60.7777 59.8531 57.3729C59.8531 53.7724 62.0056 51.659 65.1756 51.659C68.7369 51.659 70.3806 53.7528 70.3806 57.275C70.3806 60.9538 68.1107 62.8519 65.019 62.8519ZM65.156 60.7581C67.2302 60.7581 67.739 59.2122 67.739 57.275C67.739 55.4552 67.2302 53.7332 65.1169 53.7332C63.0427 53.7332 62.4752 55.4552 62.4752 57.2946C62.4752 59.271 63.1209 60.7581 65.156 60.7581Z" fill="white"/>
<path d="M73.1775 62.6171V51.933H77.9325C80.2415 51.933 81.5917 52.931 81.5917 54.7703C81.5917 55.9053 80.9068 56.6684 80.1828 56.9619C81.0438 57.1185 82.1396 57.9012 82.1396 59.4471C82.1396 61.4234 80.4959 62.6171 78.0107 62.6171H73.1775ZM75.78 60.7581H77.4433C78.5782 60.7581 79.4588 60.4255 79.4588 59.3884C79.4588 58.3121 78.5978 58.0186 77.2476 57.999H75.78V60.7581ZM75.78 56.3553H77.1106C78.3434 56.3553 79.087 55.9444 79.087 55.0443C79.087 54.1246 78.3434 53.7919 77.1693 53.7919H75.78V56.3553Z" fill="white"/>
<path d="M84.0592 62.9302L83.3548 60.8168C84.0788 60.5624 85.018 60.1124 85.4681 59.3101C85.9573 58.41 86.3486 55.6118 86.4661 51.933H93.8627V62.6171H91.2602V53.9093H88.6772C88.3641 57.5098 87.9728 59.7014 87.2683 60.8951C86.6422 61.9126 85.5464 62.5779 84.0592 62.9302Z" fill="white"/>
<path d="M97.3117 62.6171V51.933H99.9143V57.5881L99.8556 59.1535L100.873 57.5881L104.787 51.933H107.389V62.6171H104.787V57.0011L104.826 55.4356L103.828 57.0011L99.9143 62.6171H97.3117Z" fill="white"/>
</svg>
