<svg width="23" height="23" viewBox="0 0 23 23" fill="none" xmlns="http://www.w3.org/2000/svg">
<path d="M19.6336 16.426L15.738 12.884C15.5539 12.7166 15.3119 12.6273 15.0632 12.635C14.8144 12.6427 14.5784 12.7468 14.405 12.9252L12.1117 15.2836C11.5597 15.1782 10.4499 14.8323 9.3076 13.6928C8.16527 12.5495 7.81931 11.4369 7.71677 10.8887L10.0733 8.59448C10.252 8.42115 10.3562 8.1851 10.3638 7.9363C10.3715 7.68751 10.2821 7.44548 10.1145 7.26144L6.57348 3.36677C6.40581 3.18216 6.17278 3.07017 5.92388 3.0546C5.67497 3.03904 5.4298 3.12111 5.24044 3.2834L3.16085 5.06686C2.99517 5.23314 2.89628 5.45445 2.88294 5.68881C2.86856 5.9284 2.59448 11.6036 6.99515 16.0062C10.8342 19.8444 15.6431 20.1251 16.9676 20.1251C17.1611 20.1251 17.28 20.1194 17.3116 20.1175C17.5459 20.1044 17.7671 20.005 17.9326 19.8386L19.7151 17.7581C19.878 17.5693 19.9607 17.3243 19.9455 17.0754C19.9303 16.8266 19.8184 16.5935 19.6336 16.426Z" fill="#868B9D"/>
</svg>
